<svg height="967" width="1489" clip-rule="evenodd" fill-rule="evenodd" stroke-linecap="round" stroke-linejoin="round" viewBox="0 0 6667 5000"
     xmlns="http://www.w3.org/2000/svg">
  <path
    d="m3975.68 3769.27c155.652-9.815 278.736-16.581 374.125-21.655l-1.609-64.84c103.14-4.993 103.134-4.939 138.968-5.991 246.237-7.227 330.284-7.535 573.176-11.387 652.884-10.353 1085.65.231 1085.66.234 4.63 1.035 9.537 1.222 13.889 3.112 1.986.862 13.473 5.849 19.002 19.263 5.689 13.801.661 25.49-.209 27.512-5.733 13.327-17.295 18.14-19.294 18.972-8.298 3.455-8.516 2.847-17.505 2.932-14.507.136-452.461 3.805-1103.99 35.258-164.43 7.938-509.309 30.224-574.474 34.551-8.675.576-8.679.405-108.527 5.747l-5.05-64.662c-143.212 7.292-254.22 13.448-374.161 20.954zm-194.866 12.793-4.774 80.562-121.274 13.019c-2.367.258-127.683 11.964-313.84 31.222-273.462 28.292-487.414 54.362-703.654 82.128-8.022 1.03-99.745 12.326-335.832 45.579-13.359 1.882-149.615 21.074-166.907 24.055-16.637 2.869-71.843 14.111-78.082 15.381-289.485 58.95-517.255 126.731-517.794 126.886-210.888 60.98-358.501 113.512-387.959 124.544-18.101 6.778-18.463 5.581-37.731 7.184-11.098.922-74.426 6.189-132.657-42.179-28.348-23.545-42.421-50.312-45.08-55.368-.032-.062-13.956-34.461-13.962-34.495-2.244-12.172-5.699-24.183-6.724-36.518-.921-11.098-6.181-74.435 42.179-132.657 23.545-28.347 50.312-42.421 55.368-45.079 22.371-11.763 22.642-11.46 47.355-16.811 42.285-9.155 226.302-47.875 488.696-84.443 72.201-10.062 283.486-41.383 556.56-59.671 1.393-.094 18.176-2.176 170.868-15.824l364.289-31.544c154.444-13.147 434.286-35.666 669.133-51.39 17.509-1.172 116.353-8.116 316.727-18.613 17.475-.916 32.8-1.533 139.3-5.113zm0 0c70.839-4.828 134.003-8.984 194.866-12.793-60.02 3.785-124.882 8.023-194.866 12.793z"
    fill="#fff"/>
  <path
    d="m343.304 1812.07-42.208 10.983c11.017 5.72 27.187 4.773 55.264-3.449 46.858-14.812 98.42-38.656 129.594-60.157 46.215-32.517 372.757-310.567 496.118-416.656 39.711-35.404 166.129-152.376 228.256-210.25 49.925-46.287 160.103-148.333 221.615-220.986 36.667-43.477 69.799-100.904 73.048-106.628l-65.77 106.225"
    fill="none" stroke="#fff" stroke-width="362.04"/>
  <g fill="#fff">
    <path
      d="m744.698 3915.54c-18.827 13.114-46.449 27.978-81.516 34.515-31.279 5.83-55.924 2.932-60.755 2.364-23.349-2.746-39.888-8.523-43.235-9.692-25.937-9.061-43.836-21.215-47.336-23.591-11.639-7.904-80.209-54.464-87.905-152.313-2.944-37.428 6.497-68.94 8.222-74.699 3.367-11.238 7.635-21.855 12.415-31.739 6.265-30.025 13.576-63.203 20.683-89.357 21.003-77.295 46.189-225.675 65.997-318.417 15.583-72.964 18.527-72.293 26.101-111.493 13.593-70.355 23.026-160.894 39.881-258.31.823-4.754 3.591-25.673 8.588-54.15 3.232-18.417 3.2-23.541 23.665-132.46 14.86-79.086 26.6-141.408 36.028-196.364 1.774-10.34 6.635-29.2 15.294-75.908 16.045-86.549 60.28-268.474 68.058-310.137 10.248-54.901 8.793-55.138 15.474-92.25 10.158-56.42 27.782-129.815 50.399-229.318 18.867-83.006 18.713-89.439 18.765-89.77 3.916-25.361 3.175-25.448 6.737-50.869 10.589-75.571 18.277-125.232 30.965-212.448-1.375-12.866-1.576-25.925-.424-38.81 2.894-32.37 6.594-35.398 14.63-60.058 4.163-29.06 11.21-77.922 12.298-83.302 2.182-10.784 4.985-21.495 8.81-31.812 11.6-31.296 29.586-52.903 32.954-56.949 21.359-25.659 45.516-40.054 50.039-42.749 28.688-17.095 56.265-22.632 61.429-23.669 32.75-6.576 60.606-2.62 65.822-1.88 33.08 4.698 58.04 17.701 62.713 20.135 29.64 15.442 48.856 36.015 52.453 39.867 22.819 24.431 34.097 50.232 36.208 55.063 4.416 10.102 7.986 20.618 10.633 31.321 5.926 23.961 7.062 56.713 7.234 61.679 1.947 56.129-7.994 111.25-22.611 167.697-4.315 16.666-14.041 34.819-15.582 37.695-4.474 8.35-9.608 16.378-15.262 24.003-3.448 15.054-7.145 31.237-11.094 48.582-23.937 105.12-23.628 105.182-29.722 131.558l-.062-.011c-8.621 45.381-10.247 46.73-17.526 80.044-20.518 93.911-47.013 190.252-62.696 275.571-6.812 37.059-4.985 37.352-17.003 104.007-2.243 12.439-1.736 12.506-26.052 155.827-22.181 130.747-21.098 130.9-26.709 170.845-3.631 25.855-7.754 51.749-8.725 57.866-4.931 31.064-56.178 258.562-67.866 321.332-5.687 30.539-8.25 38.605-11.726 66.347-13.982 111.594-19.532 227.38-40.81 319.854-15.655 68.039-36.674 237.256-53.37 333.64-8.048 46.461-12.538 63.699-13.468 69.395-.639 3.914-3.634 17.849-9.617 55.855.076 1.306.114 2.614.102 3.923-.28 30.241-7.393 54.483-8.738 59.067-.261.888-.902 3.072-1.954 6.21-2.332 9.81-5.546 20.061-9.907 30.522-4.985 11.954-11.108 23.507-18.307 34.274-7.309 10.932-15.681 21.241-25.009 30.509-2.792 2.774-10.674 10.605-23.147 19.766-.78.604-1.572 1.194-2.376 1.765-.687.489-1.383.963-2.087 1.427z"/>
    <path
      d="m2153.77 709.178c9.932-3.152 46.966-14.905 128.177-23.191 37.638-3.84 64.315-5.457 130.108.547 7.354.671 62.84 5.734 91.413 12.768 42.883 10.557 84.612 35.415 109.596 50.193 36.955 21.859 49.575 30.472 79.953 61.663 33.832 34.737 44.638 51.607 54.624 66.666 9.487 14.306 21.778 33.82 33.248 53.049 5.39 9.036 8.762 12.356 19.133 28.554 3.805 5.943 8.638 13.491 43.977 76.468 27.095 48.284 29.37 52.502 40.921 76.429 6.958 14.414 22.246 46.081 83.511 181.804 31.938 70.752 41.562 112.472 55.006 166.351.449 1.8 13.87 62.115 17.234 81.975 2.955 17.445 24.508 199.68 23.672 245.172-2.278 123.992-2.525 129.806-3.005 141.085-1.515 35.631-3.802 87.202-28.033 242.775-11.256 72.268-20.399 121.238-56.64 268.328-29.988 121.707-41.465 153.644-46.402 168.84-34.153 105.122-66.863 200.916-69.997 209.482-13.222 36.131-68.611 171.374-101.907 238.895-11.648 23.619-32.461 65.043-91.288 172.984-9.677 17.758-9.696 17.735-20.27 34.989-44.972 73.378-121.316 177.326-145.024 206.265-26.214 31.998-53.365 59.23-76.993 81.782-4.226 4.033-15.491 14.785-54.531 48.558-3.924 3.394-3.802 3.536-8.055 6.495-73.009 50.801-82 52.586-84.378 53.625-27.945 12.208-99.629 40.987-108.323 44.477-8.087 3.247-36.717 17.192-111.92 30.685-59.782 10.726-86.299 10.416-93.852 10.328-51.269-.599-135.151-13.015-151.32-17.845-.19-.057-16.283-5.25-34.862-12.296-61.638-23.377-97.192-46.604-99.517-47.498-.191-.073-46.417-16.099-103.091-45.043-27.517-14.054-35.819-19.895-38.732-21.944-37.196-26.169-98.804-75.416-106.273-83.391-.193-.206-28.357-32.226-51.441-61.057-40.362-50.411-44.799-63.904-53.286-78.819-50.778-89.229-60.727-124.087-62.632-129.524-10.429-29.767-17.611-52.587-18.358-54.942-1.42-4.476-1.346-4.495-3.198-14.607-10.533-57.487-11.903-78.753-14.319-120.042-5.046-86.234-3.245-103.657-1.914-125.955 3.524-59.028 14.746-202.664 16.037-214.221 6.429-57.52 65.385-466.098 69.103-485.823.079-.417 1.59-12.902 54.062-241.998 10.23-44.666 10.586-44.566 21.822-89.003 27.908-110.373 28.212-110.293 31.536-121.512 5.337-18.007 24.131-81.428 72.775-223.198 40.432-117.834 56.91-153.927 134.252-322.866l51.535-113.145c15.047-32.995 38.539-66.761 68.943-108.467l.021.013c6.303-10.167 31.84-48.784 92.587-108.082 41.002-40.024 75.033-67.584 123.059-97.916 45.425-28.688 81.162-44.812 87.041-48.062 47.844-26.443 85.368-42.115 106.215-50.798zm112.076 314.227c-.173.094-.3.172-.397.236l.11.318c-14.97 4.311-41.144 11.859-74.505 25.497-3.239 1.324-56.116 28.907-92.635 62.466-28.026 25.754-60.318 62.45-69.932 77.575l.108.066c-11.908 19.553-36.742 53.969-44.726 70.19l.082.036c-8.631 20.94-25.425 60.792-75.099 185.495-43.043 108.058-48.918 121.479-97.93 290.821-28.928 99.951-38.763 140.772-41.673 152.558l.042.011c-17.893 84.2-31.979 152.724-33.559 160.145-.196.921-47.437 206.245-57.046 253.569-33.175 224.675-60.227 418.144-65.22 459.558-7.571 96.922-12.575 160.978-15.482 214.424l-.017-.001c-.052 3.947-.175 14.127 1.024 48.445.926 26.483 1.766 40.359 2.273 49.483 2.37 22.952 7.265 49.242 7.314 50.119.034.607.886 33.245.961 36.136.141 5.413.044 5.412-.291 7.231-.78 4.241 1.996 28.948 13.842 80.5 1.078 4.695 1.224 5.497 1.904 8.877.157.037.173.175.082.407.121.6.259 1.28.42 2.068l-1.116.484c.471 3.908 4.062 16.885 20.606 55.505 5.04 11.765 7.843 17.837 7.251 18.28-.493.368-.982.734-1.467 1.097 3.091 4.698 8.564 12.717 18.982 27.487 18.75 26.584 27.279 37.392 27.454 39.061.046.441.04.796-.101 1.202.767.919 2.296 2.624 5.481 5.935 29.237 30.388 70.839 62.542 71.364 62.848 0 0 13.143 3.474 13.915 3.669 29.929 7.555 55.502 10.291 72.135 11.771.1-.607.371-.954 1.041-1.34 1.482-.853 43.629-4.074 74.417-10.131 10.043-1.975 12.501-3.076 13.125-3.514l-.075-.525c4.17-2.694 17.754-7.125 42.736-18.817 15.945-7.462 26.428-13.256 31.893-16.859 1.297-1.623 3.25-3.393 5.985-5.4 4.889-3.587 17.427-12.332 32.386-22.961 28.186-20.028 41.855-29.956 48.511-34.898-.331-.462-.664-.928-1-1.397-.526-.735 5.185-6.556 24.291-27.883 3.831-4.276 4.291-3.786 38.087-34.484.438-.398 8.385-7.214 24.849-23.974 29.397-29.927 35.774-40.496 63.503-77.665 60.569-81.186 82.134-115.236 96.358-138.458 1.096-1.789 80.83-143.592 102.296-188.684 29.72-62.427 71.524-157.348 83.376-189.849 23.947-65.67 70.822-199.268 76.516-217.741 19.468-63.161 59.147-209.441 74.037-276.742 2.911-13.159 13.618-61.555 30.346-165.71 15.892-98.954 15.157-130.576 18.987-211.063.601-12.616 1.226-25.232 1.826-37.848-.129-25.233-8.133-129.356-14.05-189.849l.03-.004c-3.259-20.984-9.861-52.1-13.706-75.402-6.82-41.328-8.868-56.245-21.477-95.424-.176-.548-41.031-116.645-66.182-182.008-.858-2.228-9.4-24.43-10.91-27.783-2.468-5.485-28.664-62.5-47.194-101.074-2.105-4.381-2.071-4.38-3.371-7.129l.072-.04c-1.125-2.385-2.478-5.138-9.697-17.205-.788-1.317-35.118-45.173-44.169-53.32l-.252.222c-1.244-.921-13.183-10.854-21.338-17.104-.986-.057-2.257-.414-3.92-1.125-14.904-6.377-29.035-13.137-42.298-17.605-.285-.096-.563-.189-.833-.278-.975.333-2.32.512-4.148.527-.307.003-40.095-.426-73.545 2.068-1.5.111-17.057 1.271-18.659 2.328-.126.083-45.519 9.565-74.339 19.555-4.448 1.541-6.482 2.416-7.446 2.912l.17.474c-.077.022-.153.044-.23.066l-.153-.428zm-218.076 2452.78c.163.343.328.688.494 1.035-.163-.349-.328-.694-.494-1.035zm218.229-2452.35.005.014-.431.152-.014-.04c.148-.042.294-.084.44-.126z"/>
    <path
      d="m3370.33 3398.76c-3.345 32.133-5.998 58.639-7.538 76.729-1.325 15.569-1.075 15.64-5.098 30.752-7.224 27.133-20.664 46.595-23.179 50.237-15.956 23.105-35.174 36.892-38.771 39.472-22.815 16.366-45.558 22.86-49.814 24.076-27 7.709-50.6 6.149-55.017 5.857-28.018-1.852-49.708-11.284-53.767-13.049-25.75-11.197-42.987-27.394-46.213-30.425-20.462-19.228-31.223-40.291-33.237-44.233-12.775-25.005-15.798-48.463-16.364-52.853-.375-2.91-1.852-14.367-.787-36.668 3.349-70.125 14.366-126.206 16.222-149.556-2.506-42.287-.046-74.991 12.359-144.541 4.755-26.658 5.338-26.592 8.371-65.924 3.924-50.909 5.282-71.013 10.515-101.908.388-33.631-6.832-93.938 20.622-163.083 20.549-184.958 51.651-442.938 56.965-481.918 9.118-66.873 14.563-97.016 24.653-165.869 19.765-134.885 30.343-196.871 47.471-309.471 13.858-91.095 13.681-91.116 29.997-181.807 9.146-50.842 56.852-309.66 67.952-356.681 7.068-29.941 45.089-219.316 61.825-304.678 6.617-33.75 25.913-60.815 29.244-65.487 4.797-6.728 31.148-43.689 81.483-63.485 33.718-13.261 63.446-12.699 69.061-12.593.071.001 36.301 4.309 36.334 4.32 11.549 3.836 23.533 6.551 34.643 11.514 9.997 4.466 67.052 29.952 94.288 99.204 13.261 33.718 12.699 63.446 12.593 69.061-.456 24.16-1.264 24.143-7.138 47.583-15.177 60.568-61.596 247.863-76.85 301.882-.174.615-30.535 116.842-73.368 308.996-20.057 89.978-24.602 113.072-26.545 122.945-18.083 91.887-25.799 134.504-27.92 146.223-20.053 110.768-41.345 232.831-47.12 270.788-2.802 18.419-5.225 34.592-7.37 49.206 6.942-3.977 13.908-7.762 21.354-11.848 53.769-29.502 68.327-33.527 102.951-43.163 57.718-16.063 79.368-19.491 116.61-20.478 81.252-2.152 121.147 13.704 122.694 14.225 9.519 3.207 50.494 17.01 110.269 60.055 1.827 1.316 45.715 32.586 77.739 68.78 23.291 26.322 34.941 48.534 39.14 56.423l.006-.003c54.888 99.713 69.662 134.362 80.401 169.494 8.319 27.215 37.37 128.325 42.379 152.907 8.818 43.274 40.758 275.644 45.384 340.053 6.8 94.656-.987 166.155-5.403 290.71-1.972 55.598-4.695 91.413-5.299 99.35-7.832 102.972-16.739 186.934-16.856 187.769-1.564 11.073-14.745 95.05-22.801 162.889-2.728 22.973-1.606 23.294-9.151 45.159-3.242 9.394-21.745 63.014-82.185 93.16-29.427 14.678-56.349 16.539-61.434 16.891-22.377 1.548-30.571-.41-33.152-1.026-10.648-2.544-21.606-4.024-31.949-7.611-9.365-3.248-62.429-21.651-92.78-82.128-9.747-19.422-11.103-27.161-11.542-29.67-5.253-29.984-.2-32.586-4.049-58.844l-1.743-.156c1.342-72.484 5.833-150.116 6.495-164.397.805-17.358 2.666-30.239 7.815-103.941 4.306-61.648 4.325-70.254 7.013-110.244 4.62-68.732 3.457-68.784 8.184-146.504 6.104-100.362 7.869-137.011 1.613-198.308-7.053-69.105-25.488-217.305-33.293-265.086-10.758-43.09-27.628-103.993-34.311-126.589-9.021-23.462-38.892-79.628-49.732-99.877-4.72-4.44-12.549-11.239-19.56-16.408-6.043-4.456-11.788-8.163-16.233-10.871-6.125-.186-11.886-.047-14.644.042-10.349 2.245-25.629 6.119-42.015 10.688-11.785 5.629-26.945 13.954-40.474 21.396-14.03 9.97-32.774 27.882-35.487 30.474-43.21 41.293-71.297 73.844-81.064 87.836-28.281 40.513-37.715 55.733-49.152 76.573-21.407 39.004-43.836 87.194-68.096 139.189-.346 3.426-.681 6.774-1.006 10.04-.011 21.81 2.602 52.281-5.141 93.96l-.033.182c-5.926 34.592-6.933 94.966-16.403 146.104-1.204 6.499-2.408 12.853-3.571 19.014-2.969 28.469-5.933 56.461-8.771 83.168.729 35.225-5.527 65.775-11.219 106.005zm500.157 413.441c-.103-.621-.212-1.254-.325-1.899l-.222 1.833z"/>
  </g>
  <path
    d="m4701.85 1448.92 13.302-17.222c-20.444 17.094-28.969 87.858-39.42 129.422-12.553 50.123-15.486 95.39-21.751 150.896-8.191 80.809-45.627 375.585-55.755 526.931-8.911 141.538-23.65 404.957-32.288 554.351-8.22 145.104-.787 157.874-16.212 327.852-6.292 69.283-18.29 299.049-21.381 332.975 1.021-23.885-1.926 45.056 0 0 .709-16.581-.258 6.021 0 0"
    fill="none" stroke="#fff" stroke-width="280.69"/>
  <path
    d="m4681.08 2888.85c-4.502 5.64-9.06 11.225-14.292 16.161-5.573 5.259-12.621 8.781-19.457 12.244-6.358 3.221-43.558 22.064-88.711 8.154-6.97-2.148-47.025-14.488-69.713-58.752-3.459-6.748-6.271-13.865-8.385-21.148-2.53-8.716-17.713-61.032 24.231-110.833 22.936-27.232 274.532-278.58 299.394-311.416l-.027-.022c4.897-5.841 9.735-12.6 53.61-54.845 79.958-76.987 124.972-118.065 149.63-142.05l1.937 2.05c10.43-8.254 20.161-17.523 31.444-24.539 7.599-4.726 16.482-7.122 25.109-9.498 54.971-15.144 96.118 7.276 103.426 11.258 50.536 27.537 63.906 75.181 66.207 83.382 15.359 54.734-7.629 96.585-11.657 103.917-1.712 3.118-10.898 19.84-27.338 35.073-10.086 9.346-81.583 67.745-149.434 125.394-26.189 22.252-42.341 36.99-44.744 39.094-.029-.027-.058-.054-.087-.081-8.835 10.002-24.022 26.321-94.34 91.632-86.714 80.539-145.054 132.34-224.827 206.634-.659-.603-1.318-1.205-1.976-1.809zm318.517-653.348-.623-.551-1.957 2.211c.869-.54 1.729-1.094 2.58-1.66zm-303.669 635.956.62.359 1.274-2.202c-.641.605-1.272 1.22-1.894 1.843z"
    fill="#fff"/>
  <path
    d="m4685.35 2669.18c-4.685 4.279-17.306 15.503-19.752 18.078-5.423 5.934-11.287 17.561-12.093 24.428-.99 11.083 12.524 40.776 23.876 60.793 9.392 15.986 55.046 85.885 71.274 105.705 86.876 106.239 272.048 346.267 296.095 379.474 26.162 36.671 48.382 63.234 77.546 105.86 14.875 21.741 34.544 53.373 33.028 65.805"
    fill="none" stroke="#fff" stroke-width="288.71"/>
  <path
    d="m6094.62 3285.58c-5.706 7.223-11.589 14.528-17.614 21.837-69.348 84.116-109.163 124.841-191.19 179.164-64.367 42.628-85.759 48.232-110.111 54.903-2.512.688-47.762 13.151-81.094 16.511-57.368 5.782-118.39-15.592-140.081-25.394-4.765-2.152-36.058-14.507-83.302-62.743-23.809-24.308-38.556-43.51-61.857-91.242-20.53-42.055-26.186-62.148-33.968-94.157-10.851-44.629-14.407-66.781-17.026-129.952-4.4-106.134.653-162.043 1.921-176.073 3.301-36.531 8.316-70.535 9.217-76.645 15.319-103.875 35.063-190.497 65.143-303.634 3.834-14.418 34.462-124.373 68.073-201.078 3.576-8.16 39.51-90.204 79.354-141.157 48.219-61.664 89.308-79.787 92.688-81.444 15.962-7.821 35.606-13.284 38.789-14.169 10.031-2.789 18.5-4.594 25.421-5.769 33.755-10.958 71.664-25.701 117.066-18.591 57.463 8.999 66.112 10.989 71.791 12.295 5.169 1.189 24.066 5.536 63.037 20.572 63.467 24.488 93.712 50.226 123.86 84.85 21.049 19.019 69.079 58.904 95.027 77.886 14.744 7.501 35.379 21.029 58.743 47.223 20.184 22.629 38.366 49.746 52.041 69.237 15.718 14.318 31.632 34.735 42.09 63.447 10.854 22.87 19.988 51.013 21.372 84.942.66 16.182.136 69.132-7.788 108.396-6.253 30.984-22.937 88.014-37.347 131.092-9.183 37.585-21.338 80.254-36.06 116.031 7.269 30.628 18.71 75.329 35.98 134.172 9.794 33.375 19.269 65.135 42 122.084 15.478 38.78 24.677 57.125 27.845 63.297 19.896 32.956 91.317 148.404 91.58 148.95 4.298 8.923 9.488 17.472 12.874 26.779 3.047 8.377 20.438 56.186-4.655 111.326-12.217 26.845-29.927 43.349-33.272 46.466-.053.05-23.677 18.031-23.709 18.047-8.916 4.288-17.454 9.476-26.752 12.857-8.375 3.044-56.137 20.408-111.294-4.674-26.853-12.212-43.377-29.91-46.498-33.253-13.888-14.876-13.052-15.553-23.739-32.892-83.402-135.305-89.115-144.118-97.542-160.539-12.626-24.601-32.166-68.992-51.013-118.958zm-40.064-703.14c-16.241-10.528-40.803-28.806-82.511-63.166-4.992-4.113-41.886-34.507-61.261-52.763-10.572-9.963-13.747-14.081-18.661-19.732-7.084-3.105-16.412-6.461-30.862-11.406-2.615-.487-4.397-.736-21.987-3.574-5.743 1.924-11.649 3.92-19.558 6.325-2.614.795-5.127 1.515-7.536 2.168-37.312 58.649-56.767 119.008-63.248 138.129-17.191 50.72-28.619 89.241-47.834 166.814-1.8 7.267-35.082 136.663-46.661 253.318-.16 1.614-5.101 38.403-2.103 129.747 1.369 41.717 3.061 55.295 3.657 60.073 3.992 20.893 8.674 37.894 10.134 43.056 1.534 3.736 6.767 16.132 14.366 30.128 4.852-1.098 10.214-2.407 15.686-3.89 14.936-8.758 53.952-32.904 80.6-57.281 14.534-13.295 32.18-30.635 80.261-89.501 15.842-19.397 53.616-70.117 73.317-100.939l.007.004c11.711-20.659 66.379-119.533 79.286-146.284 14.725-30.517 33.155-74.206 45.742-109.566 2.339-10.039 4.661-20.637 6.924-31.697 8.5-41.546 14.042-79.285 16.463-105.704-8.209-11.82-15.998-23.578-24.221-34.259zm180.721-173.391-.973-.144c.03.014.06.027.091.041.289.033.584.067.882.103z"
    fill="#fff"/>
</svg>
